<svg width="10" height="16" viewBox="0 0 10 16" fill="none" xmlns="http://www.w3.org/2000/svg">
<path fill-rule="evenodd" clip-rule="evenodd" d="M5 1C3.93913 1 2.92172 1.42143 2.17157 2.17157C1.42143 2.92172 1 3.93914 1 5C1 6.06087 1.42143 7.07828 2.17157 7.82843C2.92172 8.57857 3.93913 9 5 9C6.06087 9 7.07828 8.57857 7.82843 7.82843C8.57857 7.07828 9 6.06087 9 5C9 3.93914 8.57857 2.92172 7.82843 2.17157C7.07828 1.42143 6.06087 1 5 1ZM3.95006e-10 5C1.21561e-05 4.03241 0.280771 3.08562 0.808227 2.27444C1.33568 1.46326 2.08717 0.822544 2.97156 0.430006C3.85594 0.0374677 4.83523 -0.0900317 5.79064 0.0629709C6.74605 0.215973 7.63655 0.642905 8.35413 1.29199C9.0717 1.94107 9.58553 2.78441 9.8333 3.71974C10.0811 4.65506 10.0521 5.64219 9.74997 6.56139C9.44783 7.48059 8.88547 8.29238 8.13109 8.8983C7.37672 9.50422 6.46274 9.87824 5.5 9.975V12H7.5C7.63261 12 7.75979 12.0527 7.85355 12.1464C7.94732 12.2402 8 12.3674 8 12.5C8 12.6326 7.94732 12.7598 7.85355 12.8536C7.75979 12.9473 7.63261 13 7.5 13H5.5V15.5C5.5 15.6326 5.44732 15.7598 5.35355 15.8536C5.25979 15.9473 5.13261 16 5 16C4.86739 16 4.74021 15.9473 4.64645 15.8536C4.55268 15.7598 4.5 15.6326 4.5 15.5V13H2.5C2.36739 13 2.24021 12.9473 2.14645 12.8536C2.05268 12.7598 2 12.6326 2 12.5C2 12.3674 2.05268 12.2402 2.14645 12.1464C2.24021 12.0527 2.36739 12 2.5 12H4.5V9.975C3.26668 9.85105 2.12337 9.27341 1.29188 8.35414C0.460384 7.43488 -1.55717e-05 6.23953 3.95006e-10 5Z" fill="white"/>
</svg>
