<svg width="14" height="14" viewBox="0 0 14 14" fill="none" xmlns="http://www.w3.org/2000/svg">
<path fill-rule="evenodd" clip-rule="evenodd" d="M8.5 1C8.36739 1 8.24021 0.947322 8.14644 0.853553C8.05268 0.759785 8 0.632608 8 0.5C8 0.367392 8.05268 0.240215 8.14644 0.146447C8.24021 0.0526784 8.36739 0 8.5 0H13.5C13.6326 0 13.7598 0.0526784 13.8536 0.146447C13.9473 0.240215 14 0.367392 14 0.5V5.5C14 5.63261 13.9473 5.75979 13.8536 5.85355C13.7598 5.94732 13.6326 6 13.5 6C13.3674 6 13.2402 5.94732 13.1464 5.85355C13.0527 5.75979 13 5.63261 13 5.5V1.707L8.871 5.836C9.68281 6.82919 10.0818 8.0964 9.98558 9.37554C9.88932 10.6547 9.30512 11.8479 8.35381 12.7084C7.4025 13.5689 6.15686 14.0309 4.8745 13.9987C3.59215 13.9666 2.37119 13.4429 1.46415 12.5359C0.557103 11.6288 0.0333627 10.4078 0.00124838 9.12549C-0.030866 7.84314 0.431102 6.5975 1.29161 5.64619C2.15211 4.69488 3.34533 4.11068 4.62446 4.01442C5.9036 3.91815 7.17081 4.31719 8.164 5.129L12.293 1H8.5ZM5 5C3.93913 5 2.92172 5.42143 2.17157 6.17157C1.42143 6.92172 0.999998 7.93913 0.999998 9C0.999998 10.0609 1.42143 11.0783 2.17157 11.8284C2.92172 12.5786 3.93913 13 5 13C6.06086 13 7.07828 12.5786 7.82843 11.8284C8.57857 11.0783 9 10.0609 9 9C9 7.93913 8.57857 6.92172 7.82843 6.17157C7.07828 5.42143 6.06086 5 5 5Z" fill="white"/>
</svg>
