<svg width="18" height="18" viewBox="0 0 18 18" fill="none" xmlns="http://www.w3.org/2000/svg">
<path d="M13.1667 0.666656H4.83333C2.53333 0.666656 0.666668 2.52499 0.666668 4.81666V9.79999V10.6333C0.666668 12.925 2.53333 14.7833 4.83333 14.7833H6.08333C6.30833 14.7833 6.60833 14.9333 6.75 15.1167L8 16.775C8.55 17.5083 9.45 17.5083 10 16.775L11.25 15.1167C11.4083 14.9083 11.6583 14.7833 11.9167 14.7833H13.1667C15.4667 14.7833 17.3333 12.925 17.3333 10.6333V4.81666C17.3333 2.52499 15.4667 0.666656 13.1667 0.666656ZM5.66667 8.99999C5.2 8.99999 4.83333 8.62499 4.83333 8.16666C4.83333 7.70832 5.20833 7.33332 5.66667 7.33332C6.125 7.33332 6.5 7.70832 6.5 8.16666C6.5 8.62499 6.13333 8.99999 5.66667 8.99999ZM9 8.99999C8.53333 8.99999 8.16667 8.62499 8.16667 8.16666C8.16667 7.70832 8.54167 7.33332 9 7.33332C9.45833 7.33332 9.83333 7.70832 9.83333 8.16666C9.83333 8.62499 9.46667 8.99999 9 8.99999ZM12.3333 8.99999C11.8667 8.99999 11.5 8.62499 11.5 8.16666C11.5 7.70832 11.875 7.33332 12.3333 7.33332C12.7917 7.33332 13.1667 7.70832 13.1667 8.16666C13.1667 8.62499 12.8 8.99999 12.3333 8.99999Z" fill="#00923F"/>
</svg>
