<svg width="20" height="20" viewBox="0 0 20 20" fill="none" xmlns="http://www.w3.org/2000/svg">
<path d="M15.0583 7.09166L7.925 3.52499C3.13333 1.12499 1.16667 3.09166 3.56667 7.88332L4.29166 9.33332C4.5 9.75832 4.5 10.25 4.29166 10.675L3.56667 12.1167C1.16667 16.9083 3.125 18.875 7.925 16.475L15.0583 12.9083C18.2583 11.3083 18.2583 8.69166 15.0583 7.09166ZM12.3667 10.625H7.86666C7.525 10.625 7.24166 10.3417 7.24166 9.99999C7.24166 9.65832 7.525 9.37499 7.86666 9.37499H12.3667C12.7083 9.37499 12.9917 9.65832 12.9917 9.99999C12.9917 10.3417 12.7083 10.625 12.3667 10.625Z" fill="#00923F"/>
</svg>
