<svg width="12" height="16" viewBox="0 0 12 16" fill="none" xmlns="http://www.w3.org/2000/svg">
<path fill-rule="evenodd" clip-rule="evenodd" d="M7.5 1C7.36739 1 7.24022 0.947322 7.14645 0.853553C7.05268 0.759785 7 0.632608 7 0.5C7 0.367392 7.05268 0.240215 7.14645 0.146447C7.24022 0.0526784 7.36739 0 7.5 0L11.5 0C11.6326 0 11.7598 0.0526784 11.8536 0.146447C11.9473 0.240215 12 0.367392 12 0.5V4.5C12 4.63261 11.9473 4.75979 11.8536 4.85355C11.7598 4.94732 11.6326 5 11.5 5C11.3674 5 11.2402 4.94732 11.1464 4.85355C11.0527 4.75979 11 4.63261 11 4.5V1.707L7.55 5.157C7.84727 5.7291 8.00184 6.36457 8.00055 7.00929C7.99926 7.65401 7.84215 8.28886 7.54261 8.85977C7.24306 9.43067 6.80995 9.92071 6.28018 10.2881C5.75041 10.6556 5.13967 10.8895 4.5 10.97V13H6C6.13261 13 6.25979 13.0527 6.35355 13.1464C6.44732 13.2402 6.5 13.3674 6.5 13.5C6.5 13.6326 6.44732 13.7598 6.35355 13.8536C6.25979 13.9473 6.13261 14 6 14H4.5V15.5C4.5 15.6326 4.44732 15.7598 4.35355 15.8536C4.25979 15.9473 4.13261 16 4 16C3.86739 16 3.74022 15.9473 3.64645 15.8536C3.55268 15.7598 3.5 15.6326 3.5 15.5V14H2C1.86739 14 1.74022 13.9473 1.64645 13.8536C1.55268 13.7598 1.5 13.6326 1.5 13.5C1.5 13.3674 1.55268 13.2402 1.64645 13.1464C1.74022 13.0527 1.86739 13 2 13H3.5V10.97C2.85984 10.8892 2.24874 10.6547 1.71883 10.2865C1.18893 9.91835 0.755951 9.42746 0.456846 8.85573C0.15774 8.28401 0.00138361 7.6484 0.00111805 7.00316C0.000852483 6.35792 0.156686 5.72219 0.455321 5.15021C0.753956 4.57824 1.18653 4.08699 1.71613 3.7184C2.24573 3.34981 2.85664 3.1148 3.49673 3.03344C4.13683 2.95208 4.7871 3.02677 5.39208 3.25115C5.99705 3.47553 6.53877 3.84293 6.971 4.322L10.293 1H7.5ZM6.503 5.346C6.0642 4.68216 5.37966 4.21983 4.59998 4.0607C3.8203 3.90158 3.00934 4.0587 2.3455 4.4975C1.68166 4.9363 1.21933 5.62084 1.0602 6.40052C0.90108 7.1802 1.0582 7.99116 1.497 8.655C1.93593 9.31884 2.6206 9.78112 3.40037 9.94015C4.18015 10.0992 4.99116 9.94193 5.655 9.503C6.31884 9.06407 6.78112 8.3794 6.94015 7.59963C7.09918 6.81985 6.94193 6.00884 6.503 5.345V5.346Z" fill="white"/>
</svg>
